# xmcd
# 
# Track frame offsets:
#     150
#     13467
#     25750
#     37880
#     53132
#     65935
#     79680
#     91965
#     104507
#     116007
#     127727
#     141112
#     154167
#     168355
#     181842
#     193615
#     205155
#     216722
# 
# Disc length: 3072
# 
# Revision: 7
# Processed by: cddbd v1.5.2PL0 Copyright (c) Steve Scherf et al.
# Submitted via: fre:ac v1.0.31
# 
DISCID=000bfe12
DTITLE=Columbia Blues - Louis Jordan Five Guys Named Moe (Original Decca Recordings Vol 2)
DYEAR=1992
DGENRE=Blues
TTITLE0=Five Guys Named Moe
TTITLE1=Is You Is Or Is You Ain't (My Baby)
TTITLE2=Safe, Sane and Single
TTITLE3=Life Is So Peculiar
TTITLE4=I Know What I've Got
TTITLE5=Open The Door Richard
TTITLE6=Reet, Petit And Gone
TTITLE7=Boogie Woogie Blue Plate
TTITLE8=Pettin' And Pokin
TTITLE9=(You Dyed Your Hair) Chartruesse
TTITLE10=Jordan For President
TTITLE11=Look Out (Sister, Look Out)
TTITLE12=Azure Te
TTITLE13=G.I. Jive
TTITLE14=I Like 'Em Fat Like That
TTITLE15=Push Ka Pee Shee Pie
TTITLE16=Jack, You're Dead
TTITLE17=Texas And Pacific
EXTD=NOT by Louis Jordan YEAR: 1992
EXTT0=
EXTT1=
EXTT2=
EXTT3=
EXTT4=
EXTT5=
EXTT6=
EXTT7=
EXTT8=
EXTT9=
EXTT10=
EXTT11=
EXTT12=
EXTT13=
EXTT14=
EXTT15=
EXTT16=
EXTT17=
PLAYORDER=
